<?xml version="1.0" encoding="iso-8859-1"?>
<!-- Generator: Adobe Illustrator 18.1.1, SVG Export Plug-In . SVG Version: 6.00 Build 0)  -->
<svg xmlns="http://www.w3.org/2000/svg" xmlns:xlink="http://www.w3.org/1999/xlink" version="1.1" id="Capa_1" x="0px" y="0px" viewBox="0 0 456.556 456.556" style="enable-background:new 0 0 456.556 456.556;" xml:space="preserve" width="512px" height="512px">
<g>
	<path d="M387.954,456.556H68.602c-7.413,0-13.428-6.015-13.428-13.428v-429.7C55.174,6.011,61.189,0,68.602,0h48.082   c7.413,0,13.428,6.011,13.428,13.428s-6.015,13.428-13.428,13.428H82.03V429.7h292.495V26.856H170.908   c-7.413,0-13.428-6.011-13.428-13.428S163.494,0,170.908,0h217.046c7.413,0,13.428,6.011,13.428,13.428v429.7   C401.382,450.541,395.367,456.556,387.954,456.556z" fill="#FFFFFF"/>
	<path d="M324.282,166.131H136.253c-5.931,0-10.742-4.812-10.742-10.742s4.812-10.742,10.742-10.742h188.029   c5.931,0,10.742,4.812,10.742,10.742S330.213,166.131,324.282,166.131z" fill="#FFFFFF"/>
	<path d="M320.603,225.823H139.932c-5.931,0-10.742-4.812-10.742-10.742c0-5.931,4.812-10.742,10.742-10.742h180.671   c5.931,0,10.742,4.812,10.742,10.742C331.346,221.011,326.534,225.823,320.603,225.823z" fill="#FFFFFF"/>
	<path d="M244.147,285.515H143.604c-5.931,0-10.742-4.812-10.742-10.742s4.812-10.742,10.742-10.742h100.543   c5.931,0,10.742,4.812,10.742,10.742S250.078,285.515,244.147,285.515z" fill="#FFFFFF"/>
	<path d="M320.603,285.515h-31.486c-5.931,0-10.742-4.812-10.742-10.742s4.812-10.742,10.742-10.742h31.486   c5.931,0,10.742,4.812,10.742,10.742S326.534,285.515,320.603,285.515z" fill="#FFFFFF"/>
</g>
<g>
</g>
<g>
</g>
<g>
</g>
<g>
</g>
<g>
</g>
<g>
</g>
<g>
</g>
<g>
</g>
<g>
</g>
<g>
</g>
<g>
</g>
<g>
</g>
<g>
</g>
<g>
</g>
<g>
</g>
</svg>
